<svg xmlns="http://www.w3.org/2000/svg" viewBox="0 0 24 24" fill="none">
<g>
<path fill-rule="evenodd" clip-rule="evenodd" d="M12.75 14.5C12.75 14.9142 12.4142 15.25 12 15.25C11.5858 15.25 11.25 14.9142 11.25 14.5V6.03807L11.2439 6.04522C11.0333 6.29385 10.827 6.55662 10.6341 6.80234L10.634 6.80236L10.5893 6.85931C10.3971 7.10404 10.1949 7.36115 10.0378 7.52274C9.74911 7.81977 9.27428 7.82651 8.97726 7.53781C8.68023 7.24911 8.67349 6.77428 8.96219 6.47726C9.05089 6.386 9.19651 6.20419 9.40971 5.93276L9.45677 5.87282L9.4568 5.87278C9.64686 5.63065 9.86982 5.34661 10.0995 5.07551C10.3457 4.78495 10.6213 4.48316 10.8968 4.24854C11.0348 4.13096 11.1904 4.01499 11.3578 3.92541C11.5193 3.83902 11.7417 3.75 12 3.75C12.2583 3.75 12.4807 3.83902 12.6422 3.92541C12.8096 4.01499 12.9652 4.13096 13.1032 4.24854C13.3787 4.48316 13.6543 4.78495 13.9005 5.07551C14.1302 5.3466 14.3531 5.63064 14.5432 5.87277L14.5432 5.87281L14.5903 5.93276C14.8035 6.20419 14.9491 6.386 15.0378 6.47726C15.3265 6.77428 15.3198 7.24911 15.0227 7.53781C14.7257 7.82651 14.2509 7.81977 13.9622 7.52274C13.8051 7.36115 13.6029 7.10404 13.4107 6.85931L13.366 6.80237L13.3659 6.80232C13.173 6.5566 12.9667 6.29385 12.7561 6.04522L12.75 6.03807V14.5ZM4.75 16.5C4.75 16.0858 4.41421 15.75 4 15.75C3.58579 15.75 3.25 16.0858 3.25 16.5C3.25 17.1367 3.28223 17.699 3.38719 18.1768C3.49401 18.663 3.68612 19.1083 4.03892 19.4611C4.39172 19.8139 4.83699 20.006 5.32323 20.1128C5.80098 20.2178 6.36327 20.25 7 20.25H17C17.6367 20.25 18.199 20.2178 18.6768 20.1128C19.163 20.006 19.6083 19.8139 19.9611 19.4611C20.3139 19.1083 20.506 18.663 20.6128 18.1768C20.7178 17.699 20.75 17.1367 20.75 16.5C20.75 16.0858 20.4142 15.75 20 15.75C19.5858 15.75 19.25 16.0858 19.25 16.5C19.25 17.1043 19.2175 17.5375 19.1477 17.8549C19.0799 18.1639 18.9874 18.3135 18.9004 18.4004C18.8135 18.4874 18.6639 18.5799 18.3549 18.6477C18.0375 18.7175 17.6043 18.75 17 18.75H7C6.39573 18.75 5.96252 18.7175 5.64508 18.6477C5.33614 18.5799 5.18653 18.4874 5.09958 18.4004C5.01263 18.3135 4.92012 18.1639 4.85225 17.8549C4.78252 17.5375 4.75 17.1043 4.75 16.5Z" fill="currentColor"/>
</g>
</svg>
