<svg xmlns="http://www.w3.org/2000/svg" viewBox="0 0 24 24" fill="none">
<g>
<path fill-rule="evenodd" clip-rule="evenodd" d="M5.75 6C5.75 5.30964 6.30964 4.75 7 4.75C7.69036 4.75 8.25 5.30964 8.25 6C8.25 6.69036 7.69036 7.25 7 7.25C6.30964 7.25 5.75 6.69036 5.75 6ZM7 3.25C5.48122 3.25 4.25 4.48122 4.25 6C4.25 7.26646 5.10611 8.33297 6.27118 8.65238V8.71324L6.26986 8.73012C6.25573 8.94215 6.25668 9.14547 6.27118 9.34012V15.3476C5.10611 15.667 4.25 16.7335 4.25 18C4.25 19.5188 5.48122 20.75 7 20.75C8.51878 20.75 9.75 19.5188 9.75 18C9.75 16.7489 8.91458 15.693 7.77118 15.3596V12.0026C8.50572 12.5246 9.36621 12.7548 10.0193 12.7548L14.3549 12.7547C14.6829 13.9066 15.7429 14.75 17 14.75C18.5188 14.75 19.75 13.5188 19.75 12C19.75 10.4812 18.5188 9.25 17 9.25C15.7395 9.25 14.6771 10.0981 14.3522 11.2547L10.0193 11.2548C9.63351 11.2548 9.01309 11.0885 8.52088 10.6894C8.14239 10.3824 7.8333 9.93571 7.77118 9.27666V8.6404C8.91458 8.30701 9.75 7.25107 9.75 6C9.75 4.48122 8.51878 3.25 7 3.25ZM5.75 18C5.75 17.3096 6.30964 16.75 7 16.75C7.69036 16.75 8.25 17.3096 8.25 18C8.25 18.6904 7.69036 19.25 7 19.25C6.30964 19.25 5.75 18.6904 5.75 18ZM17 10.75C16.3096 10.75 15.75 11.3096 15.75 12C15.75 12.6904 16.3096 13.25 17 13.25C17.6904 13.25 18.25 12.6904 18.25 12C18.25 11.3096 17.6904 10.75 17 10.75Z" fill="currentColor"/>
</g>
</svg>
