<svg xmlns="http://www.w3.org/2000/svg" viewBox="0 0 24 24" fill="none">
<g>
<path fill-rule="evenodd" clip-rule="evenodd" d="M11.9428 1.75C14.1335 1.74999 15.9685 1.74998 17.312 1.93059C18.6886 2.11568 19.7809 2.50271 20.6391 3.3609C21.4973 4.2191 21.8843 5.31138 22.0694 6.68803C22.25 8.03145 22.25 9.8665 22.25 12.0572C22.25 14.2479 22.25 15.9685 22.0694 17.312C21.8843 18.6886 21.4973 19.7809 20.6392 20.6391C19.7809 21.4973 18.6886 21.8843 17.312 22.0694C15.9685 22.25 14.2478 22.25 12.0572 22.25C9.86646 22.25 8.03145 22.25 6.68803 22.0694C5.31138 21.8843 4.21912 21.4973 3.36092 20.6391C2.50273 19.7809 2.11568 18.6886 1.93059 17.312C1.74998 15.9685 1.74999 14.1335 1.75 11.9428V11.9428C1.74999 9.75212 1.74998 8.03144 1.93059 6.68803C2.11568 5.31137 2.50271 4.21911 3.36091 3.36091C4.21911 2.50272 5.31137 2.11568 6.68803 1.93059C8.03144 1.74998 9.75212 1.74999 11.9428 1.75H11.9428ZM6.8879 3.41722C5.67757 3.57994 4.95462 3.88853 4.42157 4.42157C3.88853 4.95462 3.57994 5.67757 3.41722 6.8879C3.25159 8.1198 3.25 9.73963 3.25 12C3.25 14.2604 3.25159 15.8802 3.41722 17.1121C3.57994 18.3224 3.88854 19.0454 4.42158 19.5785C4.95463 20.1115 5.67758 20.4201 6.88789 20.5828C8.1198 20.7484 9.73963 20.75 12 20.75C14.2604 20.75 15.8802 20.7484 17.1121 20.5828C18.3224 20.4201 19.0454 20.1115 19.5785 19.5785C20.1115 19.0454 20.4201 18.3224 20.5828 17.1121C20.7484 15.8802 20.75 14.2604 20.75 12C20.75 9.73963 20.7484 8.1198 20.5828 6.88789C20.4201 5.67758 20.1115 4.95461 19.5785 4.42156C19.0454 3.88852 18.3224 3.57994 17.1121 3.41722C15.8802 3.25159 14.2604 3.25 12 3.25C9.73963 3.25 8.1198 3.25159 6.8879 3.41722ZM11.5 6.25C8.60048 6.25 6.25 8.60048 6.25 11.5C6.25 14.3995 8.60048 16.75 11.5 16.75C12.6793 16.75 13.7677 16.3612 14.6441 15.7048L16.4697 17.5303C16.7626 17.8232 17.2374 17.8232 17.5303 17.5303C17.8232 17.2374 17.8232 16.7626 17.5303 16.4697L15.7048 14.6441C16.3612 13.7677 16.75 12.6793 16.75 11.5C16.75 8.60048 14.3995 6.25 11.5 6.25ZM7.75 11.5C7.75 9.42891 9.42891 7.75 11.5 7.75C13.5711 7.75 15.25 9.42891 15.25 11.5C15.25 13.5711 13.5711 15.25 11.5 15.25C9.42891 15.25 7.75 13.5711 7.75 11.5Z" fill="currentColor"/>
</g>
</svg>
